<mxfile host="Electron" agent="Mozilla/5.0 (Windows NT 10.0; Win64; x64) AppleWebKit/537.36 (KHTML, like Gecko) draw.io/23.0.2 Chrome/120.0.6099.109 Electron/28.1.0 Safari/537.36" modified="2024-09-10T13:09:47.508Z" version="23.0.2" etag="Nbov0VDSKC9EWimMrjHk" type="device">
  <diagram id="2i4qga7weTXimYSR2r4y" name="Página-2">
    <mxGraphModel dx="3852" dy="-544" grid="1" gridSize="10" guides="1" tooltips="1" connect="1" arrows="1" fold="1" page="1" pageScale="1" pageWidth="827" pageHeight="1169" math="0" shadow="0">
      <root>
        <mxCell id="0" />
        <mxCell id="1" parent="0" />
        <mxCell id="AxmTYT2sA5gF8doSfmYF-100" value="" style="rounded=0;whiteSpace=wrap;html=1;" parent="1" vertex="1">
          <mxGeometry x="203" y="1411" width="750" height="769" as="geometry" />
        </mxCell>
        <mxCell id="-6n7xgKERIVpxmvqz6UG-1" value="" style="rounded=0;whiteSpace=wrap;html=1;" parent="1" vertex="1">
          <mxGeometry x="-700" y="1415" width="700" height="575" as="geometry" />
        </mxCell>
        <mxCell id="-6n7xgKERIVpxmvqz6UG-4" value="Modificar clasificacion de riesgo" style="text;html=1;align=center;verticalAlign=middle;resizable=0;points=[];autosize=1;strokeColor=none;fillColor=none;" parent="1" vertex="1">
          <mxGeometry x="-700" y="1415" width="190" height="30" as="geometry" />
        </mxCell>
        <mxCell id="AxmTYT2sA5gF8doSfmYF-81" style="edgeStyle=orthogonalEdgeStyle;rounded=0;orthogonalLoop=1;jettySize=auto;html=1;" parent="1" source="-6n7xgKERIVpxmvqz6UG-6" target="AxmTYT2sA5gF8doSfmYF-80" edge="1">
          <mxGeometry relative="1" as="geometry" />
        </mxCell>
        <mxCell id="AxmTYT2sA5gF8doSfmYF-122" style="edgeStyle=orthogonalEdgeStyle;rounded=0;orthogonalLoop=1;jettySize=auto;html=1;" parent="1" source="-6n7xgKERIVpxmvqz6UG-6" target="AxmTYT2sA5gF8doSfmYF-118" edge="1">
          <mxGeometry relative="1" as="geometry">
            <Array as="points">
              <mxPoint x="-400" y="1370" />
              <mxPoint x="580" y="1370" />
            </Array>
          </mxGeometry>
        </mxCell>
        <mxCell id="-6n7xgKERIVpxmvqz6UG-6" value="Ingresa a clasificacion&amp;nbsp;&lt;div&gt;de riesgo&lt;/div&gt;" style="whiteSpace=wrap;html=1;" parent="1" vertex="1">
          <mxGeometry x="-460" y="1270" width="120" height="60" as="geometry" />
        </mxCell>
        <mxCell id="AxmTYT2sA5gF8doSfmYF-1" value="" style="rounded=0;whiteSpace=wrap;html=1;" parent="1" vertex="1">
          <mxGeometry x="-1940" y="1415" width="1020" height="595" as="geometry" />
        </mxCell>
        <mxCell id="AxmTYT2sA5gF8doSfmYF-2" value="Añadir clasificacion de riesgo" style="text;html=1;align=center;verticalAlign=middle;resizable=0;points=[];autosize=1;strokeColor=none;fillColor=none;" parent="1" vertex="1">
          <mxGeometry x="-1940" y="1415" width="180" height="30" as="geometry" />
        </mxCell>
        <mxCell id="AxmTYT2sA5gF8doSfmYF-3" style="edgeStyle=orthogonalEdgeStyle;rounded=0;orthogonalLoop=1;jettySize=auto;html=1;exitX=0.5;exitY=1;exitDx=0;exitDy=0;entryX=0.5;entryY=0;entryDx=0;entryDy=0;" parent="1" source="-6n7xgKERIVpxmvqz6UG-6" target="AxmTYT2sA5gF8doSfmYF-20" edge="1">
          <mxGeometry relative="1" as="geometry">
            <mxPoint x="-1470.0000000000002" y="1643.0000000000005" as="targetPoint" />
            <mxPoint x="-1470" y="1375" as="sourcePoint" />
            <Array as="points">
              <mxPoint x="-400" y="1370" />
              <mxPoint x="-1475" y="1370" />
            </Array>
          </mxGeometry>
        </mxCell>
        <mxCell id="AxmTYT2sA5gF8doSfmYF-60" value="" style="edgeStyle=orthogonalEdgeStyle;rounded=0;orthogonalLoop=1;jettySize=auto;html=1;" parent="1" source="AxmTYT2sA5gF8doSfmYF-20" edge="1">
          <mxGeometry relative="1" as="geometry">
            <mxPoint x="-1475" y="1560" as="targetPoint" />
          </mxGeometry>
        </mxCell>
        <mxCell id="AxmTYT2sA5gF8doSfmYF-20" value="Añadir clasificación" style="whiteSpace=wrap;html=1;" parent="1" vertex="1">
          <mxGeometry x="-1535" y="1471" width="120" height="60" as="geometry" />
        </mxCell>
        <mxCell id="AxmTYT2sA5gF8doSfmYF-66" style="edgeStyle=orthogonalEdgeStyle;rounded=0;orthogonalLoop=1;jettySize=auto;html=1;" parent="1" source="AxmTYT2sA5gF8doSfmYF-61" target="AxmTYT2sA5gF8doSfmYF-65" edge="1">
          <mxGeometry relative="1" as="geometry" />
        </mxCell>
        <mxCell id="AxmTYT2sA5gF8doSfmYF-61" value="Cargar nombre de clasificacion." style="shape=parallelogram;perimeter=parallelogramPerimeter;whiteSpace=wrap;html=1;fixedSize=1;" parent="1" vertex="1">
          <mxGeometry x="-1580" y="1560" width="215" height="80" as="geometry" />
        </mxCell>
        <mxCell id="AxmTYT2sA5gF8doSfmYF-73" style="edgeStyle=orthogonalEdgeStyle;rounded=0;orthogonalLoop=1;jettySize=auto;html=1;entryX=0.5;entryY=0;entryDx=0;entryDy=0;" parent="1" source="AxmTYT2sA5gF8doSfmYF-65" target="UBCv7OtjMOxTeJQ4KwZa-3" edge="1">
          <mxGeometry relative="1" as="geometry">
            <Array as="points">
              <mxPoint x="-1567" y="1714" />
              <mxPoint x="-1567" y="1761" />
            </Array>
          </mxGeometry>
        </mxCell>
        <mxCell id="AxmTYT2sA5gF8doSfmYF-74" style="edgeStyle=orthogonalEdgeStyle;rounded=0;orthogonalLoop=1;jettySize=auto;html=1;entryX=0;entryY=0.5;entryDx=0;entryDy=0;" parent="1" source="AxmTYT2sA5gF8doSfmYF-65" target="-6n7xgKERIVpxmvqz6UG-6" edge="1">
          <mxGeometry relative="1" as="geometry">
            <Array as="points">
              <mxPoint x="-900" y="1714" />
              <mxPoint x="-900" y="1300" />
            </Array>
          </mxGeometry>
        </mxCell>
        <mxCell id="AxmTYT2sA5gF8doSfmYF-65" value="¿Confirma la nueva&amp;nbsp;&lt;div&gt;clasificación?&lt;/div&gt;" style="rhombus;whiteSpace=wrap;html=1;" parent="1" vertex="1">
          <mxGeometry x="-1535" y="1674" width="125" height="80" as="geometry" />
        </mxCell>
        <mxCell id="AxmTYT2sA5gF8doSfmYF-69" value="Si" style="text;html=1;align=center;verticalAlign=middle;resizable=0;points=[];autosize=1;strokeColor=none;fillColor=none;" parent="1" vertex="1">
          <mxGeometry x="-1557.5" y="1680" width="30" height="30" as="geometry" />
        </mxCell>
        <mxCell id="AxmTYT2sA5gF8doSfmYF-70" value="No" style="text;html=1;align=center;verticalAlign=middle;resizable=0;points=[];autosize=1;strokeColor=none;fillColor=none;" parent="1" vertex="1">
          <mxGeometry x="-1412.5" y="1680" width="40" height="30" as="geometry" />
        </mxCell>
        <mxCell id="AxmTYT2sA5gF8doSfmYF-77" style="edgeStyle=orthogonalEdgeStyle;rounded=0;orthogonalLoop=1;jettySize=auto;html=1;endArrow=none;endFill=0;" parent="1" source="AxmTYT2sA5gF8doSfmYF-72" edge="1">
          <mxGeometry relative="1" as="geometry">
            <mxPoint x="-900" y="1710" as="targetPoint" />
          </mxGeometry>
        </mxCell>
        <mxCell id="AxmTYT2sA5gF8doSfmYF-78" style="edgeStyle=orthogonalEdgeStyle;rounded=0;orthogonalLoop=1;jettySize=auto;html=1;entryX=0;entryY=0.5;entryDx=0;entryDy=0;" parent="1" source="AxmTYT2sA5gF8doSfmYF-72" target="AxmTYT2sA5gF8doSfmYF-20" edge="1">
          <mxGeometry relative="1" as="geometry">
            <Array as="points">
              <mxPoint x="-1720" y="1920" />
              <mxPoint x="-1720" y="1501" />
            </Array>
          </mxGeometry>
        </mxCell>
        <mxCell id="AxmTYT2sA5gF8doSfmYF-72" value="¿Desea cargar otro?" style="rhombus;whiteSpace=wrap;html=1;" parent="1" vertex="1">
          <mxGeometry x="-1630" y="1880" width="125" height="80" as="geometry" />
        </mxCell>
        <mxCell id="AxmTYT2sA5gF8doSfmYF-75" value="Si" style="text;html=1;align=center;verticalAlign=middle;resizable=0;points=[];autosize=1;strokeColor=none;fillColor=none;" parent="1" vertex="1">
          <mxGeometry x="-1660" y="1890" width="30" height="30" as="geometry" />
        </mxCell>
        <mxCell id="AxmTYT2sA5gF8doSfmYF-76" value="No" style="text;html=1;align=center;verticalAlign=middle;resizable=0;points=[];autosize=1;strokeColor=none;fillColor=none;" parent="1" vertex="1">
          <mxGeometry x="-1515" y="1890" width="40" height="30" as="geometry" />
        </mxCell>
        <mxCell id="AxmTYT2sA5gF8doSfmYF-84" style="edgeStyle=orthogonalEdgeStyle;rounded=0;orthogonalLoop=1;jettySize=auto;html=1;" parent="1" source="AxmTYT2sA5gF8doSfmYF-80" edge="1">
          <mxGeometry relative="1" as="geometry">
            <mxPoint x="-400" y="1550" as="targetPoint" />
          </mxGeometry>
        </mxCell>
        <mxCell id="AxmTYT2sA5gF8doSfmYF-80" value="Modificar clasificacion&lt;div&gt;de riesgo&lt;/div&gt;" style="whiteSpace=wrap;html=1;" parent="1" vertex="1">
          <mxGeometry x="-460" y="1460" width="120" height="60" as="geometry" />
        </mxCell>
        <mxCell id="AxmTYT2sA5gF8doSfmYF-101" value="Eliminar clasificación" style="text;html=1;align=center;verticalAlign=middle;resizable=0;points=[];autosize=1;strokeColor=none;fillColor=none;" parent="1" vertex="1">
          <mxGeometry x="203" y="1411" width="130" height="30" as="geometry" />
        </mxCell>
        <mxCell id="AxmTYT2sA5gF8doSfmYF-109" value="¿Esta seguro?" style="rhombus;whiteSpace=wrap;html=1;" parent="1" vertex="1">
          <mxGeometry x="523" y="1711" width="100" height="90" as="geometry" />
        </mxCell>
        <mxCell id="AxmTYT2sA5gF8doSfmYF-110" style="edgeStyle=orthogonalEdgeStyle;rounded=0;orthogonalLoop=1;jettySize=auto;html=1;entryX=0.5;entryY=0;entryDx=0;entryDy=0;" parent="1" source="AxmTYT2sA5gF8doSfmYF-111" target="AxmTYT2sA5gF8doSfmYF-109" edge="1">
          <mxGeometry relative="1" as="geometry" />
        </mxCell>
        <mxCell id="AxmTYT2sA5gF8doSfmYF-111" value="Informar elementos a borrar" style="whiteSpace=wrap;html=1;" parent="1" vertex="1">
          <mxGeometry x="513" y="1623.5" width="120" height="60" as="geometry" />
        </mxCell>
        <mxCell id="AxmTYT2sA5gF8doSfmYF-112" value="Si" style="text;html=1;align=center;verticalAlign=middle;resizable=0;points=[];autosize=1;strokeColor=none;fillColor=none;" parent="1" vertex="1">
          <mxGeometry x="543" y="1801" width="30" height="30" as="geometry" />
        </mxCell>
        <mxCell id="AxmTYT2sA5gF8doSfmYF-113" value="No" style="text;html=1;align=center;verticalAlign=middle;resizable=0;points=[];autosize=1;strokeColor=none;fillColor=none;" parent="1" vertex="1">
          <mxGeometry x="483" y="1731" width="40" height="30" as="geometry" />
        </mxCell>
        <mxCell id="AxmTYT2sA5gF8doSfmYF-114" style="edgeStyle=orthogonalEdgeStyle;rounded=0;orthogonalLoop=1;jettySize=auto;html=1;endArrow=classic;endFill=1;entryX=1;entryY=0.5;entryDx=0;entryDy=0;exitX=0.5;exitY=1;exitDx=0;exitDy=0;" parent="1" source="UBCv7OtjMOxTeJQ4KwZa-6" target="-6n7xgKERIVpxmvqz6UG-6" edge="1">
          <mxGeometry relative="1" as="geometry">
            <mxPoint x="190" y="1786" as="targetPoint" />
            <Array as="points">
              <mxPoint x="573" y="2140" />
              <mxPoint x="170" y="2140" />
              <mxPoint x="170" y="1300" />
            </Array>
          </mxGeometry>
        </mxCell>
        <mxCell id="AxmTYT2sA5gF8doSfmYF-190" value="" style="edgeStyle=orthogonalEdgeStyle;rounded=0;orthogonalLoop=1;jettySize=auto;html=1;" parent="1" source="AxmTYT2sA5gF8doSfmYF-115" target="AxmTYT2sA5gF8doSfmYF-189" edge="1">
          <mxGeometry relative="1" as="geometry" />
        </mxCell>
        <mxCell id="AxmTYT2sA5gF8doSfmYF-115" value="Seleccione clasificacion de reemplazo" style="whiteSpace=wrap;html=1;" parent="1" vertex="1">
          <mxGeometry x="513" y="1866" width="120" height="60" as="geometry" />
        </mxCell>
        <mxCell id="AxmTYT2sA5gF8doSfmYF-116" value="" style="endArrow=classic;html=1;rounded=0;exitX=0.5;exitY=1;exitDx=0;exitDy=0;entryX=0.5;entryY=0;entryDx=0;entryDy=0;edgeStyle=orthogonalEdgeStyle;" parent="1" source="AxmTYT2sA5gF8doSfmYF-109" target="AxmTYT2sA5gF8doSfmYF-115" edge="1">
          <mxGeometry width="50" height="50" relative="1" as="geometry">
            <mxPoint x="513" y="1816" as="sourcePoint" />
            <mxPoint x="563" y="1766" as="targetPoint" />
          </mxGeometry>
        </mxCell>
        <mxCell id="AxmTYT2sA5gF8doSfmYF-121" style="edgeStyle=orthogonalEdgeStyle;rounded=0;orthogonalLoop=1;jettySize=auto;html=1;" parent="1" source="AxmTYT2sA5gF8doSfmYF-118" target="AxmTYT2sA5gF8doSfmYF-111" edge="1">
          <mxGeometry relative="1" as="geometry" />
        </mxCell>
        <mxCell id="AxmTYT2sA5gF8doSfmYF-118" value="Seleccionar clasificacion" style="whiteSpace=wrap;html=1;" parent="1" vertex="1">
          <mxGeometry x="513" y="1480" width="120" height="60" as="geometry" />
        </mxCell>
        <mxCell id="AxmTYT2sA5gF8doSfmYF-119" value="" style="rounded=0;orthogonalLoop=1;jettySize=auto;html=1;dashed=1;endArrow=none;endFill=0;" parent="1" target="AxmTYT2sA5gF8doSfmYF-120" edge="1">
          <mxGeometry relative="1" as="geometry">
            <mxPoint x="633" y="1507" as="sourcePoint" />
          </mxGeometry>
        </mxCell>
        <mxCell id="AxmTYT2sA5gF8doSfmYF-120" value="Se puede seleccionar&amp;nbsp;&lt;div&gt;una o varias&amp;nbsp;&lt;span style=&quot;background-color: initial;&quot;&gt;clasificaciones&amp;nbsp;&lt;/span&gt;&lt;/div&gt;&lt;div&gt;&lt;span style=&quot;background-color: initial;&quot;&gt;para eliminar&lt;/span&gt;&lt;/div&gt;" style="ellipse;shape=cloud;whiteSpace=wrap;html=1;" parent="1" vertex="1">
          <mxGeometry x="712" y="1411" width="190" height="110" as="geometry" />
        </mxCell>
        <mxCell id="AxmTYT2sA5gF8doSfmYF-124" value="" style="endArrow=none;html=1;rounded=0;exitX=1.016;exitY=0.82;exitDx=0;exitDy=0;exitPerimeter=0;endFill=0;" parent="1" source="AxmTYT2sA5gF8doSfmYF-113" edge="1">
          <mxGeometry width="50" height="50" relative="1" as="geometry">
            <mxPoint x="43" y="1560" as="sourcePoint" />
            <mxPoint x="170" y="1760" as="targetPoint" />
          </mxGeometry>
        </mxCell>
        <mxCell id="AxmTYT2sA5gF8doSfmYF-131" style="edgeStyle=orthogonalEdgeStyle;rounded=0;orthogonalLoop=1;jettySize=auto;html=1;entryX=0.5;entryY=0;entryDx=0;entryDy=0;" parent="1" source="AxmTYT2sA5gF8doSfmYF-125" target="AxmTYT2sA5gF8doSfmYF-128" edge="1">
          <mxGeometry relative="1" as="geometry" />
        </mxCell>
        <mxCell id="AxmTYT2sA5gF8doSfmYF-125" value="&lt;div&gt;Actualizar nombre&lt;/div&gt;" style="shape=parallelogram;perimeter=parallelogramPerimeter;whiteSpace=wrap;html=1;fixedSize=1;" parent="1" vertex="1">
          <mxGeometry x="-500" y="1550" width="215" height="80" as="geometry" />
        </mxCell>
        <mxCell id="AxmTYT2sA5gF8doSfmYF-135" style="edgeStyle=orthogonalEdgeStyle;rounded=0;orthogonalLoop=1;jettySize=auto;html=1;entryX=0.5;entryY=0;entryDx=0;entryDy=0;" parent="1" source="AxmTYT2sA5gF8doSfmYF-128" target="AxmTYT2sA5gF8doSfmYF-130" edge="1">
          <mxGeometry relative="1" as="geometry" />
        </mxCell>
        <mxCell id="AxmTYT2sA5gF8doSfmYF-136" style="edgeStyle=orthogonalEdgeStyle;rounded=0;orthogonalLoop=1;jettySize=auto;html=1;endArrow=none;endFill=0;" parent="1" source="AxmTYT2sA5gF8doSfmYF-128" edge="1">
          <mxGeometry relative="1" as="geometry">
            <mxPoint x="170" y="1640" as="targetPoint" />
          </mxGeometry>
        </mxCell>
        <mxCell id="AxmTYT2sA5gF8doSfmYF-128" value="¿Confirma cambios?" style="rhombus;whiteSpace=wrap;html=1;" parent="1" vertex="1">
          <mxGeometry x="-455" y="1655" width="125" height="80" as="geometry" />
        </mxCell>
        <mxCell id="AxmTYT2sA5gF8doSfmYF-133" style="edgeStyle=orthogonalEdgeStyle;rounded=0;orthogonalLoop=1;jettySize=auto;html=1;endArrow=none;endFill=0;exitX=0.5;exitY=1;exitDx=0;exitDy=0;" parent="1" source="UBCv7OtjMOxTeJQ4KwZa-1" edge="1">
          <mxGeometry relative="1" as="geometry">
            <mxPoint x="-900" y="1750" as="targetPoint" />
            <Array as="points">
              <mxPoint x="-520" y="1930" />
              <mxPoint x="-900" y="1930" />
            </Array>
          </mxGeometry>
        </mxCell>
        <mxCell id="UBCv7OtjMOxTeJQ4KwZa-2" style="edgeStyle=orthogonalEdgeStyle;rounded=0;orthogonalLoop=1;jettySize=auto;html=1;entryX=0.5;entryY=0;entryDx=0;entryDy=0;" edge="1" parent="1" source="AxmTYT2sA5gF8doSfmYF-130" target="UBCv7OtjMOxTeJQ4KwZa-1">
          <mxGeometry relative="1" as="geometry" />
        </mxCell>
        <mxCell id="AxmTYT2sA5gF8doSfmYF-130" value="Actualizar clasificacion" style="whiteSpace=wrap;html=1;" parent="1" vertex="1">
          <mxGeometry x="-580" y="1755" width="120" height="60" as="geometry" />
        </mxCell>
        <mxCell id="AxmTYT2sA5gF8doSfmYF-137" value="Si" style="text;html=1;align=center;verticalAlign=middle;resizable=0;points=[];autosize=1;strokeColor=none;fillColor=none;" parent="1" vertex="1">
          <mxGeometry x="-485" y="1670" width="30" height="30" as="geometry" />
        </mxCell>
        <mxCell id="AxmTYT2sA5gF8doSfmYF-138" value="No" style="text;html=1;align=center;verticalAlign=middle;resizable=0;points=[];autosize=1;strokeColor=none;fillColor=none;" parent="1" vertex="1">
          <mxGeometry x="-340" y="1670" width="40" height="30" as="geometry" />
        </mxCell>
        <mxCell id="UBCv7OtjMOxTeJQ4KwZa-8" style="edgeStyle=orthogonalEdgeStyle;rounded=0;orthogonalLoop=1;jettySize=auto;html=1;entryX=0.5;entryY=0;entryDx=0;entryDy=0;" edge="1" parent="1" source="AxmTYT2sA5gF8doSfmYF-189" target="UBCv7OtjMOxTeJQ4KwZa-6">
          <mxGeometry relative="1" as="geometry" />
        </mxCell>
        <mxCell id="AxmTYT2sA5gF8doSfmYF-189" value="Eliminar clasificacion" style="whiteSpace=wrap;html=1;" parent="1" vertex="1">
          <mxGeometry x="513" y="1950" width="120" height="60" as="geometry" />
        </mxCell>
        <mxCell id="UBCv7OtjMOxTeJQ4KwZa-1" value="Notificar usuario" style="whiteSpace=wrap;html=1;" vertex="1" parent="1">
          <mxGeometry x="-580" y="1850" width="120" height="60" as="geometry" />
        </mxCell>
        <mxCell id="UBCv7OtjMOxTeJQ4KwZa-4" style="edgeStyle=orthogonalEdgeStyle;rounded=0;orthogonalLoop=1;jettySize=auto;html=1;" edge="1" parent="1" source="UBCv7OtjMOxTeJQ4KwZa-3" target="AxmTYT2sA5gF8doSfmYF-72">
          <mxGeometry relative="1" as="geometry" />
        </mxCell>
        <mxCell id="UBCv7OtjMOxTeJQ4KwZa-3" value="Notificar usuario" style="whiteSpace=wrap;html=1;" vertex="1" parent="1">
          <mxGeometry x="-1627.5" y="1771" width="120" height="60" as="geometry" />
        </mxCell>
        <mxCell id="UBCv7OtjMOxTeJQ4KwZa-6" value="Notificar usuario" style="whiteSpace=wrap;html=1;" vertex="1" parent="1">
          <mxGeometry x="513" y="2040" width="120" height="60" as="geometry" />
        </mxCell>
      </root>
    </mxGraphModel>
  </diagram>
</mxfile>
